<svg xmlns="http://www.w3.org/2000/svg" xmlns:xlink="http://www.w3.org/1999/xlink" viewBox="0 0 430 430" width="430"
     height="430" preserveAspectRatio="xMidYMid meet"
     style="width: 100%; height: 100%; transform: translate3d(0px, 0px, 0px); content-visibility: visible;">
    <defs>
        <clipPath id="__lottie_element_51">
            <rect width="430" height="430" x="0" y="0"></rect>
        </clipPath>
        <clipPath id="__lottie_element_53">
            <path d="M0,0 L430,0 L430,430 L0,430z"></path>
        </clipPath>
        <filter id="__lottie_element_59" x="-100%" y="-100%" width="300%" height="300%">
            <feGaussianBlur result="filter_result_0" stdDeviation="52.5 52.5"></feGaussianBlur>
        </filter>
        <g id="__lottie_element_60">
            <g clip-path="url(#__lottie_element_61)" transform="matrix(1,0,0,1,0,0)" opacity="1"
               style="display: block;">
                <g transform="matrix(0.9999912977218628,0,0,0.9999912977218628,215,222.4319305419922)" opacity="1"
                   style="display: block;">
                    <g opacity="1" transform="matrix(1,0,0,1,0,0)">
                        <path stroke-linecap="butt" stroke-linejoin="round" fill-opacity="0" class="secondary"
                              stroke="rgb(8,168,138)" stroke-opacity="1" stroke-width="12"
                              d=" M-62.39099884033203,57.43199920654297 C-56.17499923706055,40.025001525878906 -39.542999267578125,27.56800079345703 -20,27.56800079345703 C-20,27.56800079345703 20,27.56800079345703 20,27.56800079345703 C39.542999267578125,27.56800079345703 56.17499923706055,40.025001525878906 62.39099884033203,57.43199920654297"></path>
                    </g>
                </g>
                <g transform="matrix(0.9999912977218628,0,0,0.9999912977218628,215,222.4319305419922)" opacity="1"
                   style="display: block;">
                    <g opacity="1" transform="matrix(1,0,0,1,0,0)">
                        <path stroke-linecap="round" stroke-linejoin="round" fill-opacity="0" class="secondary"
                              stroke="rgb(8,168,138)" stroke-opacity="1" stroke-width="12"
                              d=" M30,-27.43199920654297 C30,-10.86299991607666 16.569000244140625,2.568000078201294 0,2.568000078201294 C-16.569000244140625,2.568000078201294 -30,-10.86299991607666 -30,-27.43199920654297 C-30,-44.000999450683594 -16.569000244140625,-57.43199920654297 0,-57.43199920654297 C16.569000244140625,-57.43199920654297 30,-44.000999450683594 30,-27.43199920654297z"></path>
                    </g>
                </g>
                <g transform="matrix(0.9999912977218628,0,0,0.9999912977218628,214.75,214.99899291992188)" opacity="1"
                   style="display: block;">
                    <g opacity="1" transform="matrix(1,0,0,1,0,0)">
                        <path stroke-linecap="round" stroke-linejoin="round" fill-opacity="0" class="primary"
                              stroke="rgb(18,19,49)" stroke-opacity="1" stroke-width="12.04"
                              d=" M89.75,0 C89.75,49.56800079345703 49.56800079345703,89.75 0,89.75 C-49.56800079345703,89.75 -89.75,49.56800079345703 -89.75,0 C-89.75,-49.56800079345703 -49.56800079345703,-89.75 0,-89.75 C49.56800079345703,-89.75 89.75,-49.56800079345703 89.75,0z"></path>
                    </g>
                </g>
                <g transform="matrix(0.9999912977218628,0,0,0.9999912977218628,-35.247825622558594,-34.99883270263672)"
                   opacity="1" style="display: block;">
                    <g opacity="1" transform="matrix(1,0,0,1,250,139.78399658203125)">
                        <path stroke-linecap="round" stroke-linejoin="round" fill-opacity="0" class="primary"
                              stroke="rgb(18,19,49)" stroke-opacity="1" stroke-width="12.04"
                              d=" M0,-25.02400016784668 C0,-25.02400016784668 0,19.716999053955078 0,19.716999053955078 M24.878999710083008,-49.90299987792969 C24.878999710083008,-36.16299819946289 13.739999771118164,-25.02400016784668 0,-25.02400016784668 C-13.739999771118164,-25.02400016784668 -24.878999710083008,-36.16299819946289 -24.878999710083008,-49.90299987792969 C-24.878999710083008,-63.643001556396484 -13.739999771118164,-74.78199768066406 0,-74.78199768066406 C13.739999771118164,-74.78199768066406 24.878999710083008,-63.643001556396484 24.878999710083008,-49.90299987792969z"></path>
                    </g>
                    <g opacity="0" transform="matrix(1,0,0,1,250,139.78399658203125)">
                        <path stroke-linecap="round" stroke-linejoin="round" fill-opacity="0" class="primary"
                              stroke="rgb(18,19,49)" stroke-opacity="1" stroke-width="12.04"
                              d=" M0,-74.78299713134766 C0,-74.78299713134766 0,-74.78299713134766 0,-74.78299713134766 M0,-74.78299713134766 C0,-74.78299713134766 0,-74.78299713134766 0,-74.78299713134766 C0,-74.78299713134766 0,-74.78299713134766 0,-74.78299713134766 C0,-74.78299713134766 0,-74.78299713134766 0,-74.78299713134766 C0,-74.78299713134766 0,-74.78299713134766 0,-74.78299713134766z"></path>
                    </g>
                </g>
                <g transform="matrix(0.4999956488609314,0.8660178780555725,-0.8660178780555725,0.4999956488609314,306.9122009277344,-127.00389099121094)"
                   opacity="1" style="display: block;">
                    <g opacity="1" transform="matrix(1,0,0,1,250,139.78399658203125)">
                        <path stroke-linecap="round" stroke-linejoin="round" fill-opacity="0" class="primary"
                              stroke="rgb(18,19,49)" stroke-opacity="1" stroke-width="12.04"
                              d=" M0,-25.02400016784668 C0,-25.02400016784668 0,19.716999053955078 0,19.716999053955078 M24.878999710083008,-49.90299987792969 C24.878999710083008,-36.16299819946289 13.739999771118164,-25.02400016784668 0,-25.02400016784668 C-13.739999771118164,-25.02400016784668 -24.878999710083008,-36.16299819946289 -24.878999710083008,-49.90299987792969 C-24.878999710083008,-63.643001556396484 -13.739999771118164,-74.78199768066406 0,-74.78199768066406 C13.739999771118164,-74.78199768066406 24.878999710083008,-63.643001556396484 24.878999710083008,-49.90299987792969z"></path>
                    </g>
                    <g opacity="0" transform="matrix(1,0,0,1,250,139.78399658203125)">
                        <path stroke-linecap="round" stroke-linejoin="round" fill-opacity="0" class="primary"
                              stroke="rgb(18,19,49)" stroke-opacity="1" stroke-width="12.04"
                              d=" M0,-74.78299713134766 C0,-74.78299713134766 0,-74.78299713134766 0,-74.78299713134766 M0,-74.78299713134766 C0,-74.78299713134766 0,-74.78299713134766 0,-74.78299713134766 C0,-74.78299713134766 0,-74.78299713134766 0,-74.78299713134766 C0,-74.78299713134766 0,-74.78299713134766 0,-74.78299713134766 C0,-74.78299713134766 0,-74.78299713134766 0,-74.78299713134766z"></path>
                    </g>
                </g>
                <g transform="matrix(-0.4999956488609314,0.8660178780555725,-0.8660178780555725,-0.4999956488609314,557.9100341796875,123.99494171142578)"
                   opacity="1" style="display: block;">
                    <g opacity="1" transform="matrix(1,0,0,1,250,139.78399658203125)">
                        <path stroke-linecap="round" stroke-linejoin="round" fill-opacity="0" class="primary"
                              stroke="rgb(18,19,49)" stroke-opacity="1" stroke-width="12.04"
                              d=" M0,-25.02400016784668 C0,-25.02400016784668 0,19.716999053955078 0,19.716999053955078 M24.878999710083008,-49.90299987792969 C24.878999710083008,-36.16299819946289 13.739999771118164,-25.02400016784668 0,-25.02400016784668 C-13.739999771118164,-25.02400016784668 -24.878999710083008,-36.16299819946289 -24.878999710083008,-49.90299987792969 C-24.878999710083008,-63.643001556396484 -13.739999771118164,-74.78199768066406 0,-74.78199768066406 C13.739999771118164,-74.78199768066406 24.878999710083008,-63.643001556396484 24.878999710083008,-49.90299987792969z"></path>
                    </g>
                    <g opacity="0" transform="matrix(1,0,0,1,250,139.78399658203125)">
                        <path stroke-linecap="round" stroke-linejoin="round" fill-opacity="0" class="primary"
                              stroke="rgb(18,19,49)" stroke-opacity="1" stroke-width="12.04"
                              d=" M0,-74.78299713134766 C0,-74.78299713134766 0,-74.78299713134766 0,-74.78299713134766 M0,-74.78299713134766 C0,-74.78299713134766 0,-74.78299713134766 0,-74.78299713134766 C0,-74.78299713134766 0,-74.78299713134766 0,-74.78299713134766 C0,-74.78299713134766 0,-74.78299713134766 0,-74.78299713134766 C0,-74.78299713134766 0,-74.78299713134766 0,-74.78299713134766z"></path>
                    </g>
                </g>
                <g transform="matrix(-0.9999912977218628,0,0,-0.9999912977218628,464.7478332519531,464.99884033203125)"
                   opacity="1" style="display: block;">
                    <g opacity="1" transform="matrix(1,0,0,1,250,139.78399658203125)">
                        <path stroke-linecap="round" stroke-linejoin="round" fill-opacity="0" class="primary"
                              stroke="rgb(18,19,49)" stroke-opacity="1" stroke-width="12.04"
                              d=" M0,-25.02400016784668 C0,-25.02400016784668 0,19.716999053955078 0,19.716999053955078 M24.878999710083008,-49.90299987792969 C24.878999710083008,-36.16299819946289 13.739999771118164,-25.02400016784668 0,-25.02400016784668 C-13.739999771118164,-25.02400016784668 -24.878999710083008,-36.16299819946289 -24.878999710083008,-49.90299987792969 C-24.878999710083008,-63.643001556396484 -13.739999771118164,-74.78199768066406 0,-74.78199768066406 C13.739999771118164,-74.78199768066406 24.878999710083008,-63.643001556396484 24.878999710083008,-49.90299987792969z"></path>
                    </g>
                    <g opacity="0" transform="matrix(1,0,0,1,250,139.78399658203125)">
                        <path stroke-linecap="round" stroke-linejoin="round" fill-opacity="0" class="primary"
                              stroke="rgb(18,19,49)" stroke-opacity="1" stroke-width="12.04"
                              d=" M0,-74.78299713134766 C0,-74.78299713134766 0,-74.78299713134766 0,-74.78299713134766 M0,-74.78299713134766 C0,-74.78299713134766 0,-74.78299713134766 0,-74.78299713134766 C0,-74.78299713134766 0,-74.78299713134766 0,-74.78299713134766 C0,-74.78299713134766 0,-74.78299713134766 0,-74.78299713134766 C0,-74.78299713134766 0,-74.78299713134766 0,-74.78299713134766z"></path>
                    </g>
                </g>
                <g transform="matrix(-0.4999956488609314,-0.8660178780555725,0.8660178780555725,-0.4999956488609314,122.08779907226562,556.50390625)"
                   opacity="1" style="display: block;">
                    <g opacity="1" transform="matrix(1,0,0,1,250,139.78399658203125)">
                        <path stroke-linecap="round" stroke-linejoin="round" fill-opacity="0" class="primary"
                              stroke="rgb(18,19,49)" stroke-opacity="1" stroke-width="12.04"
                              d=" M0,-25.02400016784668 C0,-25.02400016784668 0,19.716999053955078 0,19.716999053955078 M24.878999710083008,-49.90299987792969 C24.878999710083008,-36.16299819946289 13.739999771118164,-25.02400016784668 0,-25.02400016784668 C-13.739999771118164,-25.02400016784668 -24.878999710083008,-36.16299819946289 -24.878999710083008,-49.90299987792969 C-24.878999710083008,-63.643001556396484 -13.739999771118164,-74.78199768066406 0,-74.78199768066406 C13.739999771118164,-74.78199768066406 24.878999710083008,-63.643001556396484 24.878999710083008,-49.90299987792969z"></path>
                    </g>
                    <g opacity="0" transform="matrix(1,0,0,1,250,139.78399658203125)">
                        <path stroke-linecap="round" stroke-linejoin="round" fill-opacity="0" class="primary"
                              stroke="rgb(18,19,49)" stroke-opacity="1" stroke-width="12.04"
                              d=" M0,-74.78299713134766 C0,-74.78299713134766 0,-74.78299713134766 0,-74.78299713134766 M0,-74.78299713134766 C0,-74.78299713134766 0,-74.78299713134766 0,-74.78299713134766 C0,-74.78299713134766 0,-74.78299713134766 0,-74.78299713134766 C0,-74.78299713134766 0,-74.78299713134766 0,-74.78299713134766 C0,-74.78299713134766 0,-74.78299713134766 0,-74.78299713134766z"></path>
                    </g>
                </g>
                <g transform="matrix(0.4999956488609314,-0.8660178780555725,0.8660178780555725,0.4999956488609314,-127.41004943847656,306.5050354003906)"
                   opacity="1" style="display: block;">
                    <g opacity="1" transform="matrix(1,0,0,1,250,139.78399658203125)">
                        <path stroke-linecap="round" stroke-linejoin="round" fill-opacity="0" class="primary"
                              stroke="rgb(18,19,49)" stroke-opacity="1" stroke-width="12.04"
                              d=" M0,-25.02400016784668 C0,-25.02400016784668 0,19.716999053955078 0,19.716999053955078 M24.878999710083008,-49.90299987792969 C24.878999710083008,-36.16299819946289 13.739999771118164,-25.02400016784668 0,-25.02400016784668 C-13.739999771118164,-25.02400016784668 -24.878999710083008,-36.16299819946289 -24.878999710083008,-49.90299987792969 C-24.878999710083008,-63.643001556396484 -13.739999771118164,-74.78199768066406 0,-74.78199768066406 C13.739999771118164,-74.78199768066406 24.878999710083008,-63.643001556396484 24.878999710083008,-49.90299987792969z"></path>
                    </g>
                    <g opacity="0" transform="matrix(1,0,0,1,250,139.78399658203125)">
                        <path stroke-linecap="round" stroke-linejoin="round" fill-opacity="0" class="primary"
                              stroke="rgb(18,19,49)" stroke-opacity="1" stroke-width="12.04"
                              d=" M0,-74.78299713134766 C0,-74.78299713134766 0,-74.78299713134766 0,-74.78299713134766 M0,-74.78299713134766 C0,-74.78299713134766 0,-74.78299713134766 0,-74.78299713134766 C0,-74.78299713134766 0,-74.78299713134766 0,-74.78299713134766 C0,-74.78299713134766 0,-74.78299713134766 0,-74.78299713134766 C0,-74.78299713134766 0,-74.78299713134766 0,-74.78299713134766z"></path>
                    </g>
                </g>
            </g>
        </g>
        <clipPath id="__lottie_element_61">
            <path d="M0,0 L430,0 L430,430 L0,430z"></path>
        </clipPath>
        <mask id="__lottie_element_60_1" mask-type="alpha">
            <use xlink:href="#__lottie_element_60"></use>
        </mask>
    </defs>
    <g clip-path="url(#__lottie_element_51)">
        <g clip-path="url(#__lottie_element_53)" transform="matrix(1,0,0,1,0,0)" opacity="1" style="display: block;">
            <g mask="url(#__lottie_element_60_1)" style="display: block;">
                <g filter="url(#__lottie_element_59)"
                   transform="matrix(-0.16910897195339203,-2.3940348625183105,2.3940348625183105,-0.16910897195339203,271.9410095214844,198.4600067138672)"
                   opacity="1">
                    <g class="design" opacity="1" transform="matrix(1,0,0,1,0,0)">
                        <path class="primary" fill="rgb(75,225,236)" fill-opacity="1"
                              d=" M0,-250 C137.97500610351562,-250 250,-137.97500610351562 250,0 C250,137.97500610351562 137.97500610351562,250 0,250 C-137.97500610351562,250 -250,137.97500610351562 -250,0 C-250,-137.97500610351562 -137.97500610351562,-250 0,-250z"></path>
                    </g>
                    <g class="design" opacity="1" transform="matrix(1,0,0,1,113.24199676513672,-118.88400268554688)">
                        <path class="secondary" fill="rgb(203,94,238)" fill-opacity="1"
                              d=" M0,-176.5 C97.47799682617188,-176.5 176.5,-97.47799682617188 176.5,0 C176.5,97.47799682617188 97.47799682617188,176.5 0,176.5 C-43.948001861572266,176.5 -74.39600372314453,142.4429931640625 -105.29000091552734,115.86900329589844 C-142.92100524902344,83.5 -176.5,53.53099822998047 -176.5,0 C-176.5,-97.47799682617188 -97.47799682617188,-176.5 0,-176.5z"></path>
                    </g>
                </g>
            </g>
        </g>
    </g>
</svg>